<svg xmlns="http://www.w3.org/2000/svg" viewBox="0 0 367.99 49.98"><title>Акварель</title><g fill="#3C4758" fill-rule="evenodd"><path d="M 246.82 41.23 L 271.67 41.23 L 271.67 49.7 L 237.16 49.7 L 237.16 0 L 271.04 0 L 271.04 8.47 L 246.82 8.47 L 246.82 20.44 L 267.75 20.44 L 267.75 28.28 L 246.82 28.28 L 246.82 41.23 Z M 320.46 49.7 L 310.87 49.7 L 310.87 8.47 L 296.31 8.47 L 296.03 16.87 Q 295.778 23.974 295.055 29.301 A 67.684 67.684 0 0 1 294.42 33.18 A 43.236 43.236 0 0 1 293.421 37.281 Q 292.831 39.251 292.096 40.865 A 18.772 18.772 0 0 1 290.78 43.295 A 14.602 14.602 0 0 1 288.094 46.428 A 12.187 12.187 0 0 1 284.795 48.475 A 18.448 18.448 0 0 1 280.899 49.592 Q 279.12 49.908 277.097 49.967 A 32.413 32.413 0 0 1 276.15 49.98 L 276.15 41.65 A 10.055 10.055 0 0 0 278.407 41.408 A 7.726 7.726 0 0 0 280.63 40.53 Q 282.103 39.657 283.215 37.678 A 13.937 13.937 0 0 0 283.815 36.47 Q 285.052 33.662 285.81 28.616 A 66.499 66.499 0 0 0 285.88 28.14 Q 286.397 24.519 286.693 19.476 A 204.289 204.289 0 0 0 286.93 14.21 L 287.42 0 L 320.46 0 L 320.46 49.7 Z M 61.6 49.7 L 52.01 49.7 L 52.01 0 L 61.6 0 L 61.6 20.02 L 66.5 20.02 L 81.27 0 L 92.05 0 L 73.99 24.08 L 93.45 49.7 L 81.76 49.7 L 66.36 28.77 L 61.6 28.77 L 61.6 49.7 Z M 0 49.7 L 18.34 0 L 28.14 0 L 46.41 49.7 L 36.47 49.7 L 31.85 37.31 L 14.49 37.31 L 9.94 49.7 L 0 49.7 Z M 141.68 49.7 L 160.02 0 L 169.82 0 L 188.09 49.7 L 178.15 49.7 L 173.53 37.31 L 156.17 37.31 L 151.62 49.7 L 141.68 49.7 Z M 124.04 49.7 L 100.03 49.7 L 100.03 0 L 126.63 0 A 11.09 11.09 0 0 1 129.894 0.464 A 9.41 9.41 0 0 1 132.685 1.855 Q 135.24 3.71 136.605 6.615 Q 137.97 9.52 137.97 12.67 Q 137.97 16.24 136.15 19.46 Q 134.33 22.68 130.83 24.22 A 13.613 13.613 0 0 1 134.966 26.206 A 12.189 12.189 0 0 1 137.585 28.77 A 12.14 12.14 0 0 1 139.851 34.158 A 16.412 16.412 0 0 1 140.07 36.89 A 13.449 13.449 0 0 1 139.684 40.191 A 10.166 10.166 0 0 1 137.9 43.925 A 13.032 13.032 0 0 1 133.393 47.624 A 16.138 16.138 0 0 1 132.055 48.23 A 20.802 20.802 0 0 1 125.652 49.648 A 24.577 24.577 0 0 1 124.04 49.7 Z M 351.4 49.7 L 331.03 49.7 L 331.03 0 L 340.62 0 L 340.62 17.78 L 350.84 17.78 Q 355.741 17.78 359.295 19.32 A 14.955 14.955 0 0 1 360.185 19.74 A 14.05 14.05 0 0 1 364.55 23.156 A 13.407 13.407 0 0 1 365.995 25.235 A 15.174 15.174 0 0 1 367.709 30.16 A 20.261 20.261 0 0 1 367.99 33.6 Q 367.99 38.36 366.065 42 Q 364.14 45.64 360.43 47.67 A 15.831 15.831 0 0 1 356.034 49.254 Q 353.894 49.7 351.4 49.7 Z M 203.21 49.7 L 193.55 49.7 L 193.55 0 L 214.62 0 A 14.63 14.63 0 0 1 219.238 0.716 A 13.469 13.469 0 0 1 220.92 1.4 Q 223.79 2.8 225.925 5.18 Q 228.06 7.56 229.25 10.5 Q 230.44 13.44 230.44 16.52 Q 230.44 20.72 228.48 24.5 Q 226.52 28.28 223.09 30.66 A 13.32 13.32 0 0 1 216.893 32.934 A 17.045 17.045 0 0 1 214.97 33.04 L 203.21 33.04 L 203.21 49.7 Z M 124.53 28.42 L 109.69 28.42 L 109.69 41.51 L 124.04 41.51 Q 125.79 41.51 127.225 40.635 Q 128.66 39.76 129.5 38.29 Q 130.34 36.82 130.34 35.07 A 7.974 7.974 0 0 0 130.096 33.066 A 6.763 6.763 0 0 0 129.57 31.675 A 6.532 6.532 0 0 0 128.368 30.006 A 5.911 5.911 0 0 0 127.505 29.295 A 5.128 5.128 0 0 0 124.797 28.426 A 6.28 6.28 0 0 0 124.53 28.42 Z M 340.62 25.62 L 340.62 41.86 L 350.07 41.86 Q 352.87 41.86 354.69 40.74 Q 356.51 39.62 357.35 37.765 A 9.447 9.447 0 0 0 358.122 34.881 A 11.721 11.721 0 0 0 358.19 33.6 Q 358.19 31.57 357.385 29.75 A 6.703 6.703 0 0 0 355.014 26.922 A 8.125 8.125 0 0 0 354.795 26.775 Q 353.01 25.62 350 25.62 L 340.62 25.62 Z M 203.21 8.47 L 203.21 24.57 L 214.41 24.57 Q 216.16 24.57 217.56 23.59 A 6.117 6.117 0 0 0 219.091 22.024 A 8.207 8.207 0 0 0 219.8 20.755 A 9.338 9.338 0 0 0 220.532 18.163 A 12.034 12.034 0 0 0 220.64 16.52 A 11.898 11.898 0 0 0 220.484 14.543 Q 220.288 13.381 219.846 12.42 A 7.161 7.161 0 0 0 219.695 12.11 Q 218.75 10.29 217.245 9.38 A 6.179 6.179 0 0 0 213.99 8.47 L 203.21 8.47 Z M 122.99 8.26 L 109.69 8.26 L 109.69 20.79 L 122.57 20.79 Q 124.18 20.79 125.51 20.02 Q 126.84 19.25 127.645 17.85 A 5.894 5.894 0 0 0 128.317 15.99 A 8.083 8.083 0 0 0 128.45 14.49 A 8.194 8.194 0 0 0 128.291 12.839 A 6.184 6.184 0 0 0 127.715 11.2 A 5.892 5.892 0 0 0 126.669 9.76 A 5.212 5.212 0 0 0 125.755 9.03 Q 124.53 8.26 122.99 8.26 Z M 16.1 30.52 L 30.1 30.52 L 23.24 10.01 L 16.1 30.52 Z M 157.78 30.52 L 171.78 30.52 L 164.92 10.01 L 157.78 30.52 Z" vector-effect="non-scaling-stroke"/></g></svg>
