<svg xmlns="http://www.w3.org/2000/svg" viewBox="0 0 391.602 73.049"><title>АВРОРА</title><g fill="#3C4758" fill-rule="evenodd"><path d="M 51.074 72.071 L 46.143 57.423 L 20.459 57.423 L 15.576 72.071 L 0 72.071 L 26.465 0.977 L 40.039 0.977 L 66.65 72.071 L 51.074 72.071 Z M 371.533 72.071 L 366.602 57.423 L 340.918 57.423 L 336.035 72.071 L 320.459 72.071 L 346.924 0.977 L 360.498 0.977 L 387.109 72.071 L 371.533 72.071 Z M 100.928 72.071 L 73.291 72.071 L 73.291 0.977 L 98.193 0.977 A 54.34 54.34 0 0 1 105.325 1.414 Q 113.119 2.449 117.822 5.934 A 16.076 16.076 0 0 1 124.277 17.033 A 24.024 24.024 0 0 1 124.512 20.46 A 17.21 17.21 0 0 1 123.662 25.944 A 15.264 15.264 0 0 1 121.826 29.664 A 15.375 15.375 0 0 1 114.945 35.259 A 18.824 18.824 0 0 1 114.355 35.499 A 16.278 16.278 0 0 1 119.378 37.649 A 14.404 14.404 0 0 1 122.974 41.017 A 15.358 15.358 0 0 1 125.914 48.199 A 20.448 20.448 0 0 1 126.123 51.173 Q 126.123 61.427 119.58 66.7 Q 114.379 70.892 105.66 71.813 A 48.819 48.819 0 0 1 100.928 72.071 Z M 164.6 47.022 L 151.758 47.022 L 151.758 72.071 L 137.109 72.071 L 137.109 0.977 L 164.844 0.977 A 37.105 37.105 0 0 1 172.149 1.665 A 28.434 28.434 0 0 1 178.931 3.907 A 22.578 22.578 0 0 1 185.433 8.532 A 20.854 20.854 0 0 1 188.281 12.232 A 22.71 22.71 0 0 1 191.488 22.606 A 27.73 27.73 0 0 1 191.553 24.513 A 24.539 24.539 0 0 1 190.504 31.865 A 19.235 19.235 0 0 1 184.399 40.992 Q 177.246 47.022 164.6 47.022 Z M 298.145 47.022 L 285.303 47.022 L 285.303 72.071 L 270.654 72.071 L 270.654 0.977 L 298.389 0.977 A 37.105 37.105 0 0 1 305.694 1.665 A 28.434 28.434 0 0 1 312.476 3.907 A 22.578 22.578 0 0 1 318.978 8.532 A 20.854 20.854 0 0 1 321.826 12.232 A 22.71 22.71 0 0 1 325.033 22.606 A 27.73 27.73 0 0 1 325.098 24.513 A 24.539 24.539 0 0 1 324.049 31.865 A 19.235 19.235 0 0 1 317.944 40.992 Q 310.791 47.022 298.145 47.022 Z M 260.01 34.962 L 260.01 38.136 A 50.335 50.335 0 0 1 259.194 47.409 A 37.802 37.802 0 0 1 256.299 56.544 A 29.382 29.382 0 0 1 250.588 64.843 A 26.87 26.87 0 0 1 245.679 68.751 A 28.629 28.629 0 0 1 232.577 72.943 A 35.311 35.311 0 0 1 229.834 73.048 A 31.399 31.399 0 0 1 220.01 71.55 A 28.043 28.043 0 0 1 214.062 68.8 A 27.841 27.841 0 0 1 204.062 58.113 A 33.861 33.861 0 0 1 203.32 56.666 Q 199.512 48.78 199.463 38.526 L 199.463 35.011 A 49.399 49.399 0 0 1 200.351 25.431 A 37.787 37.787 0 0 1 203.247 16.529 Q 207.031 8.546 213.94 4.273 A 28.693 28.693 0 0 1 227.008 0.105 A 35.162 35.162 0 0 1 229.736 0.001 A 31.477 31.477 0 0 1 239.32 1.419 A 27.736 27.736 0 0 1 245.532 4.273 A 27.632 27.632 0 0 1 255.231 14.591 A 33.939 33.939 0 0 1 256.226 16.529 A 38.717 38.717 0 0 1 259.478 27.472 A 50.811 50.811 0 0 1 260.01 34.962 Z M 245.166 38.38 L 245.166 34.913 Q 245.166 27.97 243.622 23.097 A 19.382 19.382 0 0 0 241.162 17.921 A 12.749 12.749 0 0 0 231.972 12.252 A 17.103 17.103 0 0 0 229.736 12.11 A 15.076 15.076 0 0 0 224.585 12.951 A 12.799 12.799 0 0 0 218.359 17.848 Q 214.355 23.585 214.307 34.669 L 214.307 38.136 A 47.891 47.891 0 0 0 214.698 44.464 Q 215.128 47.683 216.031 50.324 A 20.251 20.251 0 0 0 218.311 55.03 Q 222.314 61.036 229.834 61.036 A 14.958 14.958 0 0 0 234.883 60.222 Q 238.69 58.866 241.162 55.25 Q 245.117 49.464 245.166 38.38 Z M 151.758 12.843 L 151.758 35.157 L 164.844 35.157 Q 168.813 35.157 171.495 33.881 A 9.235 9.235 0 0 0 173.706 32.423 Q 176.758 29.688 176.758 24.61 A 14.428 14.428 0 0 0 176.288 20.834 A 10.691 10.691 0 0 0 173.682 16.163 A 10.39 10.39 0 0 0 168.381 13.217 A 15.336 15.336 0 0 0 165.186 12.843 L 151.758 12.843 Z M 285.303 12.843 L 285.303 35.157 L 298.389 35.157 Q 302.358 35.157 305.04 33.881 A 9.235 9.235 0 0 0 307.251 32.423 Q 310.303 29.688 310.303 24.61 A 14.428 14.428 0 0 0 309.833 20.834 A 10.691 10.691 0 0 0 307.227 16.163 A 10.39 10.39 0 0 0 301.926 13.217 A 15.336 15.336 0 0 0 298.73 12.843 L 285.303 12.843 Z M 101.367 41.114 L 87.939 41.114 L 87.939 60.304 L 100.488 60.304 A 17.566 17.566 0 0 0 103.64 60.038 Q 105.408 59.715 106.814 59 A 9.017 9.017 0 0 0 108.569 57.838 A 8.07 8.07 0 0 0 111.381 52.527 A 11.619 11.619 0 0 0 111.475 51.026 A 13.614 13.614 0 0 0 110.956 47.095 Q 109.634 42.717 104.947 41.543 A 15.692 15.692 0 0 0 101.367 41.114 Z M 33.252 18.946 L 24.414 45.558 L 42.188 45.558 L 33.252 18.946 Z M 353.711 18.946 L 344.873 45.558 L 362.646 45.558 L 353.711 18.946 Z M 87.939 12.843 L 87.939 30.763 L 98.779 30.763 A 20.959 20.959 0 0 0 102.825 30.335 Q 109.252 28.944 109.81 23.081 A 12.197 12.197 0 0 0 109.863 21.925 A 13.092 13.092 0 0 0 109.629 19.357 Q 109.333 17.883 108.667 16.768 A 6.272 6.272 0 0 0 107.056 14.967 A 8.652 8.652 0 0 0 104.622 13.716 Q 102.075 12.843 98.193 12.843 L 87.939 12.843 Z" vector-effect="non-scaling-stroke"/></g></svg>
