<svg xmlns="http://www.w3.org/2000/svg" viewBox="0 0 528.369 73.05"><title>КЛАССИКА</title><g fill="#3C4758" fill-rule="evenodd"><path d="M 347.266 48.292 L 375.732 0.978 L 390.43 0.978 L 390.43 72.071 L 375.732 72.071 L 375.732 24.855 L 347.266 72.071 L 332.617 72.071 L 332.617 0.978 L 347.266 0.978 L 347.266 48.292 Z M 74.658 0.978 L 122.314 0.978 L 122.314 72.071 L 107.617 72.071 L 107.617 12.843 L 88.672 12.843 L 87.5 37.941 Q 86.793 50.201 84.446 57.429 A 36.004 36.004 0 0 1 84.277 57.936 Q 82.261 63.847 78.739 67.197 A 15.68 15.68 0 0 1 77.002 68.629 Q 73.198 71.327 67.173 71.911 A 35.974 35.974 0 0 1 63.916 72.071 L 60.107 72.071 L 60.107 60.304 L 62.549 60.06 A 9.173 9.173 0 0 0 69.343 55.776 A 13.309 13.309 0 0 0 70.435 53.688 Q 72.803 48.048 73.438 33.595 L 74.658 0.978 Z M 41.406 72.071 L 23.096 43.019 L 14.648 43.019 L 14.648 72.071 L 0 72.071 L 0 0.978 L 14.648 0.978 L 14.648 29.444 L 21.338 29.444 L 38.721 0.978 L 56.592 0.978 L 34.668 34.62 L 58.887 72.071 L 41.406 72.071 Z M 444.629 72.071 L 426.318 43.019 L 417.871 43.019 L 417.871 72.071 L 403.223 72.071 L 403.223 0.978 L 417.871 0.978 L 417.871 29.444 L 424.561 29.444 L 441.943 0.978 L 459.814 0.978 L 437.891 34.62 L 462.109 72.071 L 444.629 72.071 Z M 243.408 48.39 L 258.057 48.39 A 30.152 30.152 0 0 1 256.314 56.758 A 23.351 23.351 0 0 1 249.585 66.456 A 26.289 26.289 0 0 1 238.135 72.121 Q 234.147 73.044 229.48 73.048 A 47.856 47.856 0 0 1 229.443 73.048 A 32.661 32.661 0 0 1 220.01 71.754 A 25.01 25.01 0 0 1 207.935 63.844 A 30.905 30.905 0 0 1 201.82 52.128 Q 200.528 47.611 200.205 42.246 A 61.121 61.121 0 0 1 200.098 38.575 L 200.098 34.23 A 49.378 49.378 0 0 1 200.945 24.869 A 37.641 37.641 0 0 1 203.711 16.163 Q 207.324 8.351 214.038 4.176 A 27.695 27.695 0 0 1 225.723 0.215 A 34.954 34.954 0 0 1 229.639 0.001 A 37.334 37.334 0 0 1 238.194 0.928 A 25.711 25.711 0 0 1 249.463 6.593 A 24.754 24.754 0 0 1 256.875 18.413 A 35.451 35.451 0 0 1 258.154 25.099 L 243.506 25.099 A 24.896 24.896 0 0 0 242.949 21.367 Q 242.503 19.46 241.755 17.967 A 10.043 10.043 0 0 0 239.673 15.113 A 10.226 10.226 0 0 0 235.979 12.94 Q 233.324 12.013 229.639 12.013 A 16.148 16.148 0 0 0 225.134 12.605 A 11.557 11.557 0 0 0 218.677 17.262 Q 215.279 22.165 214.97 32.118 A 64.401 64.401 0 0 0 214.941 33.546 L 214.941 38.917 Q 214.941 49.032 217.631 54.369 A 14.147 14.147 0 0 0 218.433 55.763 A 11.376 11.376 0 0 0 226.346 60.83 A 17.928 17.928 0 0 0 229.443 61.085 Q 236.23 61.085 239.575 57.984 Q 242.311 55.448 243.136 50.641 A 23.94 23.94 0 0 0 243.408 48.39 Z M 308.838 48.39 L 323.486 48.39 A 30.152 30.152 0 0 1 321.744 56.758 A 23.351 23.351 0 0 1 315.015 66.456 A 26.289 26.289 0 0 1 303.565 72.121 Q 299.576 73.044 294.91 73.048 A 47.856 47.856 0 0 1 294.873 73.048 A 32.661 32.661 0 0 1 285.44 71.754 A 25.01 25.01 0 0 1 273.364 63.844 A 30.905 30.905 0 0 1 267.249 52.128 Q 265.958 47.611 265.635 42.246 A 61.121 61.121 0 0 1 265.527 38.575 L 265.527 34.23 A 49.378 49.378 0 0 1 266.375 24.869 A 37.641 37.641 0 0 1 269.141 16.163 Q 272.754 8.351 279.468 4.176 A 27.695 27.695 0 0 1 291.153 0.215 A 34.954 34.954 0 0 1 295.068 0.001 A 37.334 37.334 0 0 1 303.624 0.928 A 25.711 25.711 0 0 1 314.893 6.593 A 24.754 24.754 0 0 1 322.305 18.413 A 35.451 35.451 0 0 1 323.584 25.099 L 308.936 25.099 A 24.896 24.896 0 0 0 308.379 21.367 Q 307.932 19.46 307.185 17.967 A 10.043 10.043 0 0 0 305.103 15.113 A 10.226 10.226 0 0 0 301.409 12.94 Q 298.753 12.013 295.068 12.013 A 16.148 16.148 0 0 0 290.563 12.605 A 11.557 11.557 0 0 0 284.106 17.262 Q 280.708 22.165 280.399 32.118 A 64.401 64.401 0 0 0 280.371 33.546 L 280.371 38.917 Q 280.371 49.032 283.061 54.369 A 14.147 14.147 0 0 0 283.862 55.763 A 11.376 11.376 0 0 0 291.776 60.83 A 17.928 17.928 0 0 0 294.873 61.085 Q 301.66 61.085 305.005 57.984 Q 307.741 55.448 308.566 50.641 A 23.94 23.94 0 0 0 308.838 48.39 Z M 181.055 72.071 L 176.123 57.423 L 150.439 57.423 L 145.557 72.071 L 129.98 72.071 L 156.445 0.978 L 170.02 0.978 L 196.631 72.071 L 181.055 72.071 Z M 512.793 72.071 L 507.861 57.423 L 482.178 57.423 L 477.295 72.071 L 461.719 72.071 L 488.184 0.978 L 501.758 0.978 L 528.369 72.071 L 512.793 72.071 Z M 163.232 18.946 L 154.395 45.558 L 172.168 45.558 L 163.232 18.946 Z M 494.971 18.946 L 486.133 45.558 L 503.906 45.558 L 494.971 18.946 Z" vector-effect="non-scaling-stroke"/></g></svg>
