<svg xmlns="http://www.w3.org/2000/svg" viewBox="0 0 397.852 73.049"><title>ОБЛАКА</title><g fill="#3C4758" fill-rule="evenodd"><path d="M 143.995 0.977 L 191.651 0.977 L 191.651 72.071 L 176.954 72.071 L 176.954 12.843 L 158.008 12.843 L 156.837 37.94 Q 156.129 50.201 153.782 57.429 A 36.004 36.004 0 0 1 153.614 57.935 Q 151.597 63.847 148.076 67.197 A 15.68 15.68 0 0 1 146.339 68.629 Q 142.535 71.326 136.509 71.911 A 35.974 35.974 0 0 1 133.253 72.071 L 129.444 72.071 L 129.444 60.304 L 131.885 60.059 A 9.173 9.173 0 0 0 138.679 55.776 A 13.309 13.309 0 0 0 139.771 53.687 Q 142.139 48.048 142.774 33.595 L 143.995 0.977 Z M 314.112 72.071 L 295.801 43.018 L 287.354 43.018 L 287.354 72.071 L 272.706 72.071 L 272.706 0.977 L 287.354 0.977 L 287.354 29.444 L 294.044 29.444 L 311.426 0.977 L 329.298 0.977 L 307.374 34.62 L 331.592 72.071 L 314.112 72.071 Z M 117.579 0.977 L 117.579 12.843 L 85.84 12.843 L 85.84 26.612 L 97.266 26.612 A 42.057 42.057 0 0 1 105.279 27.331 Q 112.341 28.702 117.164 32.691 A 19.782 19.782 0 0 1 124.448 47.179 A 27.309 27.309 0 0 1 124.512 49.073 A 23.76 23.76 0 0 1 123.261 56.947 A 20.159 20.159 0 0 1 117.213 65.699 A 25.331 25.331 0 0 1 106.69 71.013 Q 102.886 71.968 98.413 72.062 A 46.489 46.489 0 0 1 97.803 72.071 L 71.046 72.071 L 71.046 0.977 L 117.579 0.977 Z M 250.391 72.071 L 245.46 57.423 L 219.776 57.423 L 214.893 72.071 L 199.317 72.071 L 225.782 0.977 L 239.356 0.977 L 265.967 72.071 L 250.391 72.071 Z M 382.276 72.071 L 377.344 57.423 L 351.661 57.423 L 346.778 72.071 L 331.202 72.071 L 357.667 0.977 L 371.241 0.977 L 397.852 72.071 L 382.276 72.071 Z M 60.548 34.962 L 60.548 38.136 A 50.335 50.335 0 0 1 59.732 47.409 A 37.802 37.802 0 0 1 56.837 56.544 A 29.382 29.382 0 0 1 51.126 64.843 A 26.87 26.87 0 0 1 46.216 68.751 A 28.629 28.629 0 0 1 33.115 72.943 A 35.311 35.311 0 0 1 30.372 73.048 A 31.399 31.399 0 0 1 20.548 71.55 A 28.043 28.043 0 0 1 14.6 68.8 A 27.841 27.841 0 0 1 4.6 58.113 A 33.861 33.861 0 0 1 3.858 56.666 Q 0.049 48.78 0.001 38.526 L 0.001 35.011 A 49.399 49.399 0 0 1 0.888 25.431 A 37.787 37.787 0 0 1 3.785 16.529 Q 7.569 8.546 14.478 4.273 A 28.693 28.693 0 0 1 27.545 0.105 A 35.162 35.162 0 0 1 30.274 0.001 A 31.477 31.477 0 0 1 39.858 1.419 A 27.736 27.736 0 0 1 46.07 4.273 A 27.632 27.632 0 0 1 55.768 14.591 A 33.939 33.939 0 0 1 56.763 16.529 A 38.717 38.717 0 0 1 60.015 27.472 A 50.811 50.811 0 0 1 60.548 34.962 Z M 45.704 38.38 L 45.704 34.913 Q 45.704 27.97 44.16 23.097 A 19.382 19.382 0 0 0 41.7 17.921 A 12.749 12.749 0 0 0 32.51 12.252 A 17.103 17.103 0 0 0 30.274 12.11 A 15.076 15.076 0 0 0 25.123 12.951 A 12.799 12.799 0 0 0 18.897 17.848 Q 14.893 23.585 14.844 34.669 L 14.844 38.136 A 47.891 47.891 0 0 0 15.235 44.464 Q 15.666 47.683 16.569 50.324 A 20.251 20.251 0 0 0 18.848 55.03 Q 22.852 61.036 30.372 61.036 A 14.958 14.958 0 0 0 35.421 60.222 Q 39.228 58.866 41.7 55.25 Q 45.655 49.464 45.704 38.38 Z M 97.852 38.429 L 85.84 38.429 L 85.84 60.304 L 97.51 60.304 Q 103.126 60.304 106.47 57.227 A 10.18 10.18 0 0 0 109.698 50.843 A 14.355 14.355 0 0 0 109.815 48.976 Q 109.815 44.142 106.617 41.334 A 11.018 11.018 0 0 0 102.34 39.053 Q 100.331 38.472 97.852 38.429 Z M 232.569 18.946 L 223.731 45.558 L 241.505 45.558 L 232.569 18.946 Z M 364.454 18.946 L 355.616 45.558 L 373.389 45.558 L 364.454 18.946 Z" vector-effect="non-scaling-stroke"/></g></svg>
