<svg xmlns="http://www.w3.org/2000/svg" viewBox="0 0 437.842 90.82"><title>УЮТНЫЙ</title><g fill="#3C4758" fill-rule="evenodd"><path d="M 394.678 66.016 L 423.145 18.701 L 437.842 18.701 L 437.842 89.795 L 423.145 89.795 L 423.145 42.578 L 394.678 89.795 L 380.029 89.795 L 380.029 18.701 L 394.678 18.701 L 394.678 66.016 Z M 151.611 52.686 L 151.611 55.859 A 50.335 50.335 0 0 1 150.796 65.133 A 37.802 37.802 0 0 1 147.9 74.268 A 29.382 29.382 0 0 1 142.19 82.566 A 26.87 26.87 0 0 1 137.28 86.475 A 28.629 28.629 0 0 1 124.178 90.667 A 35.311 35.311 0 0 1 121.436 90.771 A 32.208 32.208 0 0 1 112.57 89.588 A 27.874 27.874 0 0 1 106.812 87.231 Q 100.342 83.691 96.313 77.051 A 34.508 34.508 0 0 1 92.255 66.922 A 43.684 43.684 0 0 1 91.357 61.523 L 83.203 61.523 L 83.203 89.795 L 68.555 89.795 L 68.555 18.701 L 83.203 18.701 L 83.203 50.146 L 91.113 50.146 A 45.431 45.431 0 0 1 92.469 40.824 A 36.252 36.252 0 0 1 95.386 33.154 A 28.579 28.579 0 0 1 102.502 24.206 A 27.45 27.45 0 0 1 105.981 21.753 A 28.788 28.788 0 0 1 118.957 17.804 A 35.111 35.111 0 0 1 121.338 17.725 A 31.477 31.477 0 0 1 130.922 19.143 A 27.736 27.736 0 0 1 137.134 21.997 A 27.632 27.632 0 0 1 146.832 32.315 A 33.939 33.939 0 0 1 147.827 34.253 A 38.717 38.717 0 0 1 151.079 45.195 A 50.811 50.811 0 0 1 151.611 52.686 Z M 280.566 18.701 L 280.566 89.795 L 265.918 89.795 L 265.918 59.326 L 237.354 59.326 L 237.354 89.795 L 222.705 89.795 L 222.705 18.701 L 237.354 18.701 L 237.354 47.51 L 265.918 47.51 L 265.918 18.701 L 280.566 18.701 Z M 15.771 18.701 L 31.494 52.295 L 44.434 18.701 L 60.254 18.701 L 35.4 77.344 L 33.398 81.201 A 19.58 19.58 0 0 1 28.071 87.339 Q 24.169 90.215 18.819 90.715 A 24.882 24.882 0 0 1 16.504 90.82 L 11.377 90.625 L 11.23 78.857 A 9.853 9.853 0 0 0 11.908 78.943 Q 13.062 79.053 15.039 79.053 A 14.406 14.406 0 0 0 17.013 78.926 Q 18.037 78.784 18.885 78.483 A 6.845 6.845 0 0 0 19.995 77.979 A 5.904 5.904 0 0 0 21.523 76.693 Q 22.43 75.644 23.145 74.023 L 24.951 69.385 L 0 18.701 L 15.771 18.701 Z M 214.355 18.701 L 214.355 30.566 L 192.578 30.566 L 192.578 89.795 L 177.93 89.795 L 177.93 30.566 L 156.445 30.566 L 156.445 18.701 L 214.355 18.701 Z M 308.252 18.701 L 308.252 44.336 L 319.678 44.336 A 42.057 42.057 0 0 1 327.691 45.054 Q 334.753 46.426 339.575 50.415 A 19.782 19.782 0 0 1 346.859 64.902 A 27.309 27.309 0 0 1 346.924 66.797 A 23.76 23.76 0 0 1 345.672 74.67 A 20.159 20.159 0 0 1 339.624 83.423 A 25.331 25.331 0 0 1 329.101 88.737 Q 325.297 89.691 320.824 89.786 A 46.489 46.489 0 0 1 320.215 89.795 L 293.506 89.795 L 293.506 18.701 L 308.252 18.701 Z M 367.676 18.701 L 367.676 89.795 L 353.027 89.795 L 353.027 18.701 L 367.676 18.701 Z M 136.768 56.104 L 136.768 52.637 Q 136.768 45.693 135.224 40.821 A 19.382 19.382 0 0 0 132.764 35.645 A 12.749 12.749 0 0 0 123.574 29.976 A 17.103 17.103 0 0 0 121.338 29.834 A 15.076 15.076 0 0 0 116.187 30.675 A 12.799 12.799 0 0 0 109.961 35.571 Q 105.957 41.309 105.908 52.393 L 105.908 55.859 A 47.891 47.891 0 0 0 106.299 62.188 Q 106.729 65.406 107.633 68.048 A 20.251 20.251 0 0 0 109.912 72.754 Q 113.916 78.76 121.436 78.76 A 14.958 14.958 0 0 0 126.485 77.946 Q 130.292 76.59 132.764 72.974 Q 136.719 67.188 136.768 56.104 Z M 415.869 0 L 425.977 0 A 14.654 14.654 0 0 1 425.1 5.163 A 12.926 12.926 0 0 1 421.313 10.498 A 16.121 16.121 0 0 1 414.172 13.979 A 23.475 23.475 0 0 1 409.082 14.502 A 23.588 23.588 0 0 1 403.814 13.946 A 16.146 16.146 0 0 1 396.851 10.547 A 12.912 12.912 0 0 1 392.222 1.113 A 17.721 17.721 0 0 1 392.187 0 L 402.197 0 A 8.276 8.276 0 0 0 402.414 1.95 A 5.468 5.468 0 0 0 404.028 4.761 A 6.082 6.082 0 0 0 406.611 6.145 Q 407.722 6.445 409.082 6.445 A 9.649 9.649 0 0 0 411.102 6.246 Q 412.877 5.866 414.063 4.761 A 5.485 5.485 0 0 0 415.656 1.95 Q 415.869 1.057 415.869 0 Z M 320.264 56.152 L 308.252 56.152 L 308.252 78.027 L 319.922 78.027 Q 325.537 78.027 328.882 74.951 A 10.18 10.18 0 0 0 332.109 68.566 A 14.355 14.355 0 0 0 332.227 66.699 Q 332.227 61.865 329.028 59.058 A 11.018 11.018 0 0 0 324.752 56.777 Q 322.742 56.196 320.264 56.152 Z" vector-effect="non-scaling-stroke"/></g></svg>
