<svg viewBox="0 0 567 91.201" xmlns="http://www.w3.org/2000/svg"><title>Лазурный</title><g fill="#3C4758" fill-rule="evenodd"><path d="M 520.4 90.5 L 504.7 90.5 L 504.7 19.5 L 521.1 19.5 L 521.1 67.2 L 551.7 19.5 L 567 19.5 L 567 90.5 L 550.6 90.5 L 550.6 43.1 L 520.4 90.5 Z M 379.7 19.5 L 396.1 19.5 L 396.1 90.5 L 379.7 90.5 L 379.7 61.4 L 351.4 61.4 L 351.4 90.5 L 335 90.5 L 335 19.5 L 351.4 19.5 L 351.4 47 L 379.7 47 L 379.7 19.5 Z M 64.6 90.5 L 48.2 90.5 L 48.2 33.9 L 30.6 33.9 L 30.2 44.8 Q 29.84 54.732 28.781 62.178 A 89.827 89.827 0 0 1 27.85 67.6 A 55.427 55.427 0 0 1 26.371 73.327 Q 24.763 78.353 22.4 81.7 Q 18.8 86.8 13.25 88.95 A 30.052 30.052 0 0 1 7.369 90.528 Q 3.97 91.1 0 91.1 L 0 76.9 A 14.279 14.279 0 0 0 3.083 76.581 A 11.043 11.043 0 0 0 6.1 75.45 Q 8.166 74.298 9.695 71.599 A 17.932 17.932 0 0 0 10.45 70.1 A 24.409 24.409 0 0 0 11.475 67.335 Q 12.528 63.934 13.25 58.95 Q 14.3 51.7 14.7 40 L 15.4 19.5 L 64.6 19.5 L 64.6 90.5 Z M 141.7 77.2 L 154 69.6 Q 156.4 73.3 160.35 75.45 A 17.565 17.565 0 0 0 166.372 77.39 A 22.597 22.597 0 0 0 169.5 77.6 A 22.986 22.986 0 0 0 172.566 77.41 Q 176.159 76.925 178.1 75.2 A 7.747 7.747 0 0 0 180.789 69.557 A 9.819 9.819 0 0 0 180.8 69.1 A 9.225 9.225 0 0 0 180.494 66.681 A 7.682 7.682 0 0 0 179.65 64.7 A 6.781 6.781 0 0 0 177.596 62.583 A 9.365 9.365 0 0 0 176.05 61.75 Q 173.6 60.7 169.8 60.7 L 160.7 60.7 L 160.7 48.4 L 169.9 48.4 A 16.688 16.688 0 0 0 171.986 48.277 Q 173.719 48.059 175 47.45 Q 177 46.5 177.95 44.85 Q 178.9 43.2 178.9 41 A 7.786 7.786 0 0 0 178.625 38.892 A 6.483 6.483 0 0 0 177.85 37.15 A 6.193 6.193 0 0 0 176.143 35.399 A 8.722 8.722 0 0 0 174.6 34.55 A 10.269 10.269 0 0 0 172.64 33.944 Q 171.67 33.74 170.533 33.657 A 22.471 22.471 0 0 0 168.9 33.6 A 24.944 24.944 0 0 0 164.631 33.947 Q 162.126 34.382 160.063 35.364 A 15.006 15.006 0 0 0 159.4 35.7 A 16.937 16.937 0 0 0 155.987 38.089 A 13.642 13.642 0 0 0 153.5 41.1 L 141.6 32.7 Q 146.1 26.5 152.75 22.75 Q 159.4 19 169.6 19 A 47.517 47.517 0 0 1 175.639 19.363 Q 178.741 19.761 181.387 20.595 A 26.378 26.378 0 0 1 183.1 21.2 A 20.759 20.759 0 0 1 187.995 23.886 A 17.024 17.024 0 0 1 191.75 27.75 A 16.481 16.481 0 0 1 194.406 34.165 A 22.799 22.799 0 0 1 194.8 38.5 Q 194.8 43.1 192.55 47.35 A 13.98 13.98 0 0 1 188.195 52.226 A 19.267 19.267 0 0 1 185.1 54 A 18.244 18.244 0 0 1 190.11 56.256 A 15.277 15.277 0 0 1 194.2 60.2 A 17.33 17.33 0 0 1 197.359 69.36 A 21.592 21.592 0 0 1 197.4 70.7 A 20.612 20.612 0 0 1 196.714 76.14 A 16.076 16.076 0 0 1 193.8 81.95 A 20.903 20.903 0 0 1 187.282 87.354 A 26.718 26.718 0 0 1 184 88.85 A 35.567 35.567 0 0 1 176.045 90.811 A 46.752 46.752 0 0 1 169.9 91.2 A 39.385 39.385 0 0 1 160.135 90.029 A 33.401 33.401 0 0 1 153.35 87.5 Q 146 83.8 141.7 77.2 Z M 222.6 91.1 L 214.3 91.1 L 214.3 77.6 L 220.6 77.6 A 10.358 10.358 0 0 0 222.108 77.497 Q 222.873 77.385 223.496 77.148 A 4.483 4.483 0 0 0 224.6 76.55 A 5.266 5.266 0 0 0 225.772 75.304 Q 226.18 74.71 226.508 73.952 A 10.939 10.939 0 0 0 226.8 73.2 L 227.7 70.8 L 200.4 19.5 L 218.5 19.5 L 235 54.2 L 249.6 19.5 L 266.9 19.5 L 239.2 80.9 A 28.601 28.601 0 0 1 237.205 84.269 Q 235.07 87.338 232.55 88.85 Q 229.591 90.625 225.107 91 A 30.144 30.144 0 0 1 222.6 91.1 Z M 71.6 90.5 L 96.1 19.5 L 113.8 19.5 L 138.2 90.5 L 121.4 90.5 L 115.9 74.6 L 93.8 74.6 L 88.4 90.5 L 71.6 90.5 Z M 440.2 90.5 L 409.7 90.5 L 409.7 19.5 L 426.1 19.5 L 426.1 44 L 439.3 44 Q 447.2 44 452.8 46.8 Q 458.4 49.6 461.4 54.8 A 22.112 22.112 0 0 1 464.029 62.343 A 29.384 29.384 0 0 1 464.4 67.1 A 29.142 29.142 0 0 1 463.71 73.579 A 23.006 23.006 0 0 1 461.55 79.4 Q 458.7 84.7 453.25 87.6 Q 447.8 90.5 440.2 90.5 Z M 289.1 90.5 L 272.7 90.5 L 272.7 19.5 L 303 19.5 A 22.067 22.067 0 0 1 309.611 20.469 A 20.038 20.038 0 0 1 312.35 21.55 Q 316.6 23.6 319.7 27.05 Q 322.8 30.5 324.5 34.8 Q 326.2 39.1 326.2 43.6 Q 326.2 49.7 323.35 55.2 Q 320.5 60.7 315.45 64.15 A 19.758 19.758 0 0 1 306.481 67.429 A 25.343 25.343 0 0 1 303.5 67.6 L 289.1 67.6 L 289.1 90.5 Z M 490.7 90.5 L 474.3 90.5 L 474.3 19.5 L 490.7 19.5 L 490.7 90.5 Z M 515.9 0 L 526.8 0 A 7.281 7.281 0 0 0 528.608 4.809 A 9.73 9.73 0 0 0 529.1 5.35 Q 531.4 7.7 535.9 7.7 Q 538.998 7.7 541.077 6.657 A 7.065 7.065 0 0 0 542.75 5.5 A 7.182 7.182 0 0 0 545.095 0.307 A 9.057 9.057 0 0 0 545.1 0 L 556 0 Q 556 4.5 553.5 8.05 A 15.8 15.8 0 0 1 548.909 12.34 A 20.328 20.328 0 0 1 546.45 13.65 A 22.745 22.745 0 0 1 540.557 15.358 A 30.449 30.449 0 0 1 535.9 15.7 A 28.906 28.906 0 0 1 530.378 15.195 A 22.327 22.327 0 0 1 525.45 13.65 A 19.03 19.03 0 0 1 521.44 11.247 A 15.291 15.291 0 0 1 518.4 8.05 Q 515.9 4.5 515.9 0 Z M 426.1 57.4 L 426.1 77.1 L 437.9 77.1 A 14.612 14.612 0 0 0 440.182 76.932 Q 441.423 76.736 442.442 76.31 A 7.632 7.632 0 0 0 443.45 75.8 Q 445.6 74.5 446.65 72.2 A 11.713 11.713 0 0 0 447.65 68.301 A 14.117 14.117 0 0 0 447.7 67.1 A 11.247 11.247 0 0 0 447.085 63.353 A 10.527 10.527 0 0 0 446.65 62.3 Q 445.6 60.1 443.45 58.75 Q 441.3 57.4 437.8 57.4 L 426.1 57.4 Z M 96.4 63.3 L 113.2 63.3 L 104.9 36 L 96.4 63.3 Z M 289.1 33.9 L 289.1 53.3 L 302.5 53.3 Q 304.4 53.3 306 52.2 A 6.742 6.742 0 0 0 307.61 50.614 Q 308.128 49.909 308.545 49.019 A 11.519 11.519 0 0 0 308.6 48.9 Q 309.6 46.7 309.6 43.5 A 15.583 15.583 0 0 0 309.438 41.187 Q 309.255 39.968 308.864 38.957 A 8.146 8.146 0 0 0 308.45 38.05 A 9.245 9.245 0 0 0 307.351 36.415 A 6.771 6.771 0 0 0 305.55 34.9 A 7.431 7.431 0 0 0 302.899 33.971 A 7.057 7.057 0 0 0 301.9 33.9 L 289.1 33.9 Z" vector-effect="non-scaling-stroke"/></g></svg>