<svg xmlns="http://www.w3.org/2000/svg" viewBox="0 0 173.95 49.98"><title>Реал</title><g fill="#3C4758" fill-rule="evenodd"><path d="M 53.27 41.23 L 78.12 41.23 L 78.12 49.7 L 43.61 49.7 L 43.61 0 L 77.49 0 L 77.49 8.47 L 53.27 8.47 L 53.27 20.44 L 74.2 20.44 L 74.2 28.28 L 53.27 28.28 L 53.27 41.23 Z M 173.95 49.7 L 164.36 49.7 L 164.36 8.47 L 149.8 8.47 L 149.52 16.87 Q 149.268 23.974 148.545 29.301 A 67.684 67.684 0 0 1 147.91 33.18 A 43.236 43.236 0 0 1 146.911 37.281 Q 146.321 39.251 145.586 40.865 A 18.772 18.772 0 0 1 144.27 43.295 A 14.602 14.602 0 0 1 141.584 46.428 A 12.187 12.187 0 0 1 138.285 48.475 A 18.448 18.448 0 0 1 134.389 49.592 Q 132.61 49.908 130.587 49.967 A 32.413 32.413 0 0 1 129.64 49.98 L 129.64 41.65 A 10.055 10.055 0 0 0 131.897 41.408 A 7.726 7.726 0 0 0 134.12 40.53 Q 135.593 39.657 136.705 37.678 A 13.937 13.937 0 0 0 137.305 36.47 Q 138.542 33.661 139.3 28.616 A 66.499 66.499 0 0 0 139.37 28.14 Q 139.887 24.519 140.183 19.476 A 204.289 204.289 0 0 0 140.42 14.21 L 140.91 0 L 173.95 0 L 173.95 49.7 Z M 80.85 49.7 L 99.19 0 L 108.99 0 L 127.26 49.7 L 117.32 49.7 L 112.7 37.31 L 95.34 37.31 L 90.79 49.7 L 80.85 49.7 Z M 9.66 49.7 L 0 49.7 L 0 0 L 21.07 0 A 14.63 14.63 0 0 1 25.688 0.716 A 13.469 13.469 0 0 1 27.37 1.4 Q 30.24 2.8 32.375 5.18 Q 34.51 7.56 35.7 10.5 Q 36.89 13.44 36.89 16.52 Q 36.89 20.72 34.93 24.5 Q 32.97 28.28 29.54 30.66 A 13.32 13.32 0 0 1 23.343 32.934 A 17.045 17.045 0 0 1 21.42 33.04 L 9.66 33.04 L 9.66 49.7 Z M 9.66 8.47 L 9.66 24.57 L 20.86 24.57 Q 22.61 24.57 24.01 23.59 A 6.117 6.117 0 0 0 25.541 22.024 A 8.207 8.207 0 0 0 26.25 20.755 A 9.338 9.338 0 0 0 26.982 18.163 A 12.034 12.034 0 0 0 27.09 16.52 A 11.898 11.898 0 0 0 26.934 14.543 Q 26.738 13.381 26.296 12.42 A 7.161 7.161 0 0 0 26.145 12.11 Q 25.2 10.29 23.695 9.38 A 6.179 6.179 0 0 0 20.44 8.47 L 9.66 8.47 Z M 96.95 30.52 L 110.95 30.52 L 104.09 10.01 L 96.95 30.52 Z"/></g></svg>
