<svg xmlns="http://www.w3.org/2000/svg" viewBox="0 0 275.625 56.875"><title>РЕГАТА</title><g fill="#3C4758" fill-rule="evenodd"><path d="M 85.82 23.047 L 85.82 32.227 L 63.32 32.227 L 63.32 47.461 L 89.727 47.461 L 89.727 56.875 L 51.602 56.875 L 51.602 0 L 89.648 0 L 89.648 9.493 L 63.32 9.493 L 63.32 23.047 L 85.82 23.047 Z M 225.117 0 L 225.117 9.493 L 207.695 9.493 L 207.695 56.875 L 195.977 56.875 L 195.977 9.493 L 178.789 9.493 L 178.789 0 L 225.117 0 Z M 169.219 56.875 L 165.273 45.157 L 144.727 45.157 L 140.82 56.875 L 128.359 56.875 L 149.531 0 L 160.391 0 L 181.68 56.875 L 169.219 56.875 Z M 263.164 56.875 L 259.219 45.157 L 238.672 45.157 L 234.766 56.875 L 222.305 56.875 L 243.477 0 L 254.336 0 L 275.625 56.875 L 263.164 56.875 Z M 133.906 0 L 133.906 9.493 L 108.398 9.493 L 108.398 56.875 L 96.68 56.875 L 96.68 0 L 133.906 0 Z M 21.992 36.836 L 11.719 36.836 L 11.719 56.875 L 0 56.875 L 0 0 L 22.188 0 Q 28.594 0 33.457 2.344 Q 38.32 4.688 40.938 9.004 A 18.168 18.168 0 0 1 43.503 17.303 A 22.184 22.184 0 0 1 43.555 18.829 Q 43.555 27.188 37.832 32.012 A 19.154 19.154 0 0 1 30.762 35.704 Q 27.921 36.536 24.523 36.756 A 39.037 39.037 0 0 1 21.992 36.836 Z M 11.719 9.493 L 11.719 27.344 L 22.188 27.344 A 15.833 15.833 0 0 0 24.877 27.131 Q 26.344 26.877 27.508 26.323 A 7.388 7.388 0 0 0 29.277 25.157 A 7.095 7.095 0 0 0 31.456 21.371 A 10.88 10.88 0 0 0 31.719 18.907 A 11.543 11.543 0 0 0 31.343 15.886 A 8.553 8.553 0 0 0 29.258 12.149 A 8.312 8.312 0 0 0 25.017 9.792 A 12.268 12.268 0 0 0 22.461 9.493 L 11.719 9.493 Z M 154.961 14.375 L 147.891 35.664 L 162.109 35.664 L 154.961 14.375 Z M 248.906 14.375 L 241.836 35.664 L 256.055 35.664 L 248.906 14.375 Z" vector-effect="non-scaling-stroke"/></g></svg>
